<?xml version="1.0" standalone="no"?>
<!DOCTYPE svg PUBLIC "-//W3C//DTD SVG 20010904//EN"
 "http://www.w3.org/TR/2001/REC-SVG-20010904/DTD/svg10.dtd">
<svg version="1.0" xmlns="http://www.w3.org/2000/svg"
 width="1024.000000pt" height="1024.000000pt" viewBox="0 0 1024.000000 1024.000000"
 preserveAspectRatio="xMidYMid meet">

<g transform="translate(0.000000,1024.000000) scale(0.100000,-0.100000)"
fill="#000000" stroke="none">
<path d="M3356 8815 c-32 -33 -33 -143 0 -220 8 -20 22 -73 30 -118 29 -153 0
-269 -92 -360 -83 -82 -181 -127 -281 -127 -94 0 -253 117 -309 229 -26 50
-29 66 -29 156 0 84 5 118 33 213 26 88 32 123 26 155 -10 63 -23 77 -69 77
-114 0 -305 -215 -381 -430 -24 -68 -27 -89 -28 -230 -1 -106 3 -169 13 -200
39 -127 58 -166 150 -303 115 -171 170 -280 211 -415 43 -141 67 -275 73 -413
l6 -116 -82 -6 c-45 -4 -146 -7 -224 -7 -78 0 -148 -3 -157 -6 -18 -7 -21 -36
-6 -65 15 -28 86 -27 93 1 5 19 12 21 119 18 l113 -3 3 -37 3 -38 52 -1 c29
-1 55 -1 60 0 10 1 8 -334 -3 -449 -5 -52 -12 -212 -15 -355 -4 -143 -11 -316
-16 -384 -5 -68 -9 -160 -9 -204 0 -80 -1 -82 -71 -221 -92 -185 -110 -267
-108 -486 1 -85 7 -164 13 -175 5 -11 24 -60 42 -110 18 -49 48 -127 67 -173
l36 -84 -6 -991 c-4 -723 -3 -1031 6 -1137 6 -80 14 -181 16 -225 6 -120 31
-241 56 -276 26 -36 55 -49 114 -49 37 0 48 5 61 25 15 24 16 43 4 231 -13
206 -9 397 10 465 20 71 95 105 174 79 80 -26 103 -114 86 -338 -6 -81 -13
-153 -15 -160 -14 -40 -24 -233 -14 -258 14 -38 25 -44 84 -44 60 0 95 9 95
23 0 6 12 23 26 38 27 28 32 52 63 315 29 240 35 1076 12 1517 -10 178 -11
271 -4 278 6 6 51 4 134 -8 456 -66 864 57 1175 353 61 58 197 252 238 338 69
146 112 303 140 516 24 186 58 255 128 267 80 12 104 -35 148 -292 39 -221 77
-361 126 -459 68 -139 122 -221 205 -315 103 -117 201 -188 394 -284 166 -83
300 -114 525 -123 284 -12 472 25 677 132 185 95 365 240 446 356 58 84 147
251 170 320 70 205 56 536 -28 693 -79 146 -94 173 -123 215 -16 25 -63 76
-102 113 l-72 69 1 113 c3 192 -43 377 -130 527 -55 95 -89 139 -170 220 -105
105 -214 169 -443 260 -111 44 -219 90 -241 103 -52 30 -156 113 -187 150
l-25 29 84 86 c121 123 162 217 163 370 0 96 -11 134 -57 194 -100 130 -271
150 -386 45 -72 -65 -82 -104 -81 -304 1 -156 3 -177 27 -250 33 -98 32 -99
-95 -130 -150 -36 -346 -49 -647 -42 -147 4 -655 10 -1131 13 -476 3 -871 7
-877 10 -17 5 -16 117 1 254 23 180 133 473 237 630 133 202 153 236 175 308
49 156 41 447 -16 564 -22 48 -87 155 -110 184 -34 43 -152 136 -202 159 -62
29 -81 31 -102 10z m-670 -50 c9 -37 0 -99 -30 -210 -62 -222 -21 -371 137
-505 99 -84 127 -95 237 -95 97 0 107 3 195 58 47 29 168 160 188 204 19 41
22 64 21 163 -2 100 -6 130 -37 229 -35 117 -37 155 -6 174 27 17 65 -1 144
-64 86 -69 139 -134 184 -226 44 -88 61 -162 66 -291 7 -152 -10 -249 -55
-322 -5 -8 -28 -53 -51 -100 -22 -47 -57 -107 -76 -134 -37 -52 -116 -206
-153 -296 -12 -30 -28 -66 -35 -80 -25 -49 -77 -257 -88 -352 -10 -86 -13 -98
-34 -107 -15 -7 -121 -11 -286 -11 l-262 0 -2 63 c-8 230 -114 566 -224 714
-21 29 -39 55 -39 57 0 3 -16 26 -35 52 -19 25 -35 51 -35 58 0 7 -13 33 -29
58 -74 116 -109 343 -78 504 30 156 145 340 272 434 78 57 101 63 111 25z
m3744 -1475 c30 -30 40 -63 40 -130 0 -92 -30 -159 -106 -235 -36 -36 -69 -65
-74 -65 -40 0 -67 380 -30 425 25 30 141 34 170 5z m-159 -700 c23 -27 76 -75
118 -107 100 -75 188 -118 420 -203 281 -103 468 -282 561 -535 26 -72 34
-110 38 -192 4 -80 2 -103 -8 -103 -7 0 -42 16 -76 35 -135 74 -346 127 -554
141 -185 11 -530 -52 -740 -137 -25 -10 -101 -40 -170 -68 -69 -27 -159 -64
-200 -82 l-75 -33 -309 -4 c-207 -3 -329 0 -370 8 -34 6 -155 49 -271 95 -115
46 -228 89 -250 96 -22 7 -45 16 -50 20 -9 7 -122 39 -205 59 -19 5 -98 16
-175 26 -185 22 -474 11 -557 -21 -24 -9 -26 31 -33 534 l-6 434 1238 -7
c1094 -7 1250 -6 1340 8 57 8 122 25 145 37 35 17 108 42 140 48 4 0 26 -21
49 -49z m-2941 -233 c0 -118 3 -342 7 -499 l6 -285 -69 -23 c-38 -13 -92 -34
-121 -46 -28 -13 -57 -24 -63 -24 -15 0 -13 835 2 860 15 24 2 67 -22 75 -45
14 -89 -28 -69 -66 9 -17 19 -831 11 -885 -3 -25 -15 -37 -65 -67 -33 -19
-105 -80 -160 -134 l-99 -98 6 218 c4 121 9 224 11 230 2 7 6 116 9 242 3 127
9 339 12 473 l7 242 298 0 299 0 0 -213z m634 -1048 c245 -47 487 -140 626
-239 69 -49 175 -161 203 -215 31 -58 30 -246 -2 -360 -76 -275 -202 -457
-431 -626 -144 -106 -280 -151 -511 -169 -132 -11 -228 -2 -365 31 l-91 22 -6
540 c-4 297 -7 643 -7 768 l0 228 93 20 c50 12 108 23 127 25 68 8 265 -5 364
-25z m2920 12 c17 -5 56 -14 86 -20 191 -37 323 -106 460 -241 147 -144 215
-296 226 -500 6 -94 3 -115 -21 -200 -35 -123 -84 -215 -167 -309 -84 -96 -94
-105 -198 -174 -162 -108 -377 -167 -606 -167 -149 0 -337 33 -434 77 -93 41
-157 74 -180 92 -14 11 -49 40 -79 63 -43 34 -173 172 -209 223 -37 51 -74
124 -91 179 -51 164 -67 404 -35 500 21 61 126 168 245 248 92 63 280 149 374
172 139 33 254 57 315 66 75 10 268 5 314 -9z m892 -551 c10 -19 25 -85 33
-147 9 -61 19 -114 22 -118 4 -3 12 1 18 9 9 11 10 20 2 35 -14 25 -4 53 18
49 23 -5 27 -145 6 -253 -16 -89 -74 -239 -125 -324 -40 -69 -126 -176 -182
-227 -107 -99 -353 -238 -488 -277 -211 -61 -464 -69 -655 -21 -341 85 -550
211 -737 443 -64 80 -97 125 -98 134 0 4 -10 24 -23 45 -49 79 -157 408 -157
479 0 2 31 3 69 3 l69 0 27 -112 c29 -122 119 -326 176 -401 66 -86 246 -240
330 -283 204 -103 500 -166 679 -143 174 21 339 71 475 141 89 46 247 173 290
233 22 31 52 71 66 88 60 74 93 134 127 230 35 97 37 108 36 227 0 97 -5 140
-21 192 -11 37 -18 70 -15 73 8 7 36 -29 58 -75z m-4762 38 c11 -48 12 -878 2
-878 -14 0 -114 109 -122 132 -3 10 -9 18 -13 18 -5 0 -21 26 -36 58 -15 31
-37 77 -50 102 -48 96 -68 283 -45 430 7 41 17 69 27 75 9 6 31 22 48 37 34
29 85 45 147 47 31 1 38 -3 42 -21z m332 9 c1 -1 5 -234 9 -517 4 -283 9 -518
11 -522 8 -13 -26 2 -153 64 -105 53 -122 64 -125 88 -2 15 -5 224 -7 465 l-3
438 134 -7 c73 -4 133 -8 134 -9z m4473 -67 c0 -23 -1 -23 -9 -5 -5 11 -9 29
-9 40 -1 17 1 17 9 5 5 -8 9 -26 9 -40z m-2818 -167 c13 -13 -11 -158 -47
-292 -32 -118 -56 -165 -178 -347 -44 -66 -157 -180 -218 -222 -27 -17 -67
-45 -90 -61 -47 -32 -191 -103 -205 -100 -4 1 -10 0 -13 -1 -3 -1 -17 -4 -32
-6 -26 -4 -28 -2 -28 31 0 33 -2 36 -22 30 -22 -6 -22 -5 -4 9 10 8 24 17 30
19 6 2 7 8 3 13 -4 4 -25 3 -47 -3 -59 -15 -53 10 8 31 26 10 56 22 67 28 162
91 168 96 312 233 105 101 167 182 233 310 39 73 94 226 106 292 4 21 9 42 12
47 6 11 100 2 113 -11z m-1986 -1005 c12 -10 18 -105 34 -558 10 -262 16 -354
32 -420 26 -116 25 -155 -5 -185 -31 -31 -69 -40 -105 -25 -72 29 -85 87 -49
206 24 77 25 86 22 369 -1 160 -5 317 -8 350 -12 130 -18 304 -12 314 6 10 45
-12 91 -51z m111 -467 c11 -11 120 -38 187 -47 27 -4 50 -12 52 -18 9 -29 12
-593 4 -847 -7 -229 -16 -341 -44 -561 -19 -151 -37 -282 -41 -292 -9 -23 -37
-36 -80 -36 l-36 0 5 58 c3 31 13 144 22 251 29 355 -7 462 -167 487 -23 4
-37 9 -30 12 10 3 10 7 0 20 -10 12 -10 14 -1 8 19 -11 5 24 -21 52 -11 12
-22 35 -24 50 -2 15 -11 36 -20 46 -13 15 -13 18 -2 11 12 -6 12 -5 3 5 -6 7
-9 19 -6 26 3 8 -1 14 -10 14 -9 0 -18 4 -22 9 -3 5 19 1 50 -10 69 -24 80
-24 134 4 83 43 102 128 54 240 -27 60 -27 68 -31 295 -2 132 0 232 5 232 5 0
13 -4 19 -9z m-236 -21 c0 -5 -2 -10 -4 -10 -3 0 -8 5 -11 10 -3 6 -1 10 4 10
6 0 11 -4 11 -10z m0 -47 c0 -20 -3 -24 -11 -16 -7 7 -9 19 -6 27 10 24 17 19
17 -11z m-2 -100 c-1 -48 -3 -59 -8 -38 -5 24 -6 91 -1 103 6 15 10 -10 9 -65z
m-58 -1501 c0 -20 -4 -42 -8 -47 -9 -13 -59 -18 -66 -7 -3 5 5 8 17 8 18 -1
23 7 30 46 10 55 27 55 27 0z m329 -53 c-8 -53 -19 -77 -19 -43 0 35 13 94 20
94 4 0 3 -23 -1 -51z"/>
<path d="M3004 7861 c-91 -56 -131 -131 -121 -226 5 -44 12 -56 53 -93 51 -47
78 -57 128 -48 104 20 157 116 125 229 -10 38 -119 157 -143 157 -6 0 -25 -9
-42 -19z m93 -117 c27 -30 37 -65 29 -99 -8 -30 -45 -72 -71 -79 -14 -4 -32 4
-57 27 -60 52 -60 95 1 160 31 33 63 30 98 -9z"/>
<path d="M3050 6445 c0 -8 5 -15 10 -15 6 0 10 7 10 15 0 8 -4 15 -10 15 -5 0
-10 -7 -10 -15z"/>
<path d="M7856 4475 c4 -8 8 -15 10 -15 2 0 4 7 4 15 0 8 -4 15 -10 15 -5 0
-7 -7 -4 -15z"/>
<path d="M4250 3635 c-11 -13 -10 -14 4 -9 9 3 16 10 16 15 0 13 -6 11 -20 -6z"/>
<path d="M4215 3600 c-3 -5 -1 -10 4 -10 6 0 11 5 11 10 0 6 -2 10 -4 10 -3 0
-8 -4 -11 -10z"/>
<path d="M10080 80 l0 -80 80 0 80 0 0 80 0 80 -80 0 -80 0 0 -80z"/>
</g>
</svg>
